<?xml version="1.0" encoding="UTF-8" standalone="no"?>
<!-- Generator: Adobe Illustrator 14.0.0, SVG Export Plug-In . SVG Version: 6.00 Build 43363)  -->

<svg
   xmlns:dc="http://purl.org/dc/elements/1.1/"
   xmlns:cc="http://creativecommons.org/ns#"
   xmlns:rdf="http://www.w3.org/1999/02/22-rdf-syntax-ns#"
   xmlns:svg="http://www.w3.org/2000/svg"
   xmlns="http://www.w3.org/2000/svg"
   xmlns:xlink="http://www.w3.org/1999/xlink"
   xmlns:sodipodi="http://sodipodi.sourceforge.net/DTD/sodipodi-0.dtd"
   xmlns:inkscape="http://www.inkscape.org/namespaces/inkscape"
   version="1.1"
   id="Layer_1"
   x="0px"
   y="0px"
   width="595.28px"
   height="841.89px"
   viewBox="0 0 595.28 841.89"
   enable-background="new 0 0 595.28 841.89"
   xml:space="preserve"
   inkscape:version="0.48.2 r9819"
   sodipodi:docname="All_Icons_tmp.svg"
   inkscape:export-filename="/Users/guilhem/Downloads/tom.png"
   inkscape:export-xdpi="141.06009"
   inkscape:export-ydpi="141.06009"><metadata
   id="metadata1204"><rdf:RDF><cc:Work
       rdf:about=""><dc:format>image/svg+xml</dc:format><dc:type
         rdf:resource="http://purl.org/dc/dcmitype/StillImage" /><dc:title></dc:title></cc:Work></rdf:RDF></metadata><defs
   id="defs1202"><linearGradient
     inkscape:collect="always"
     id="linearGradient6567"><stop
       style="stop-color:#abab5f;stop-opacity:1;"
       offset="0"
       id="stop6569" /><stop
       style="stop-color:#abab5f;stop-opacity:0;"
       offset="1"
       id="stop6571" /></linearGradient><inkscape:path-effect
     effect="envelope"
     id="path-effect5797"
     is_visible="true"
     yy="true"
     xx="true"
     bendpath1="m 515.027,1518.7762 62.77166,-0.5686"
     bendpath2="M 564.55561,1520.5178 582.213,1594.009"
     bendpath3="m 496.739,1594.009 c 28.49133,0 21.19368,-15.3101 86.10462,-13.0617"
     bendpath4="m 505.14034,1523.6206 -3.35637,63.4222"
     bendpath4-nodetypes="cc"
     bendpath1-nodetypes="cc"
     bendpath3-nodetypes="cc"
     bendpath2-nodetypes="cc" /><radialGradient
     inkscape:collect="always"
     xlink:href="#linearGradient6567"
     id="radialGradient6575"
     cx="-613.63171"
     cy="545.41571"
     fx="-613.63171"
     fy="545.41571"
     r="161.45123"
     gradientTransform="translate(0,-1.6891039e-5)"
     gradientUnits="userSpaceOnUse" /><filter
     id="filter6696"
     inkscape:label="Drop shadow"
     width="1.5"
     height="1.5"
     x="-.25"
     y="-.25"><feGaussianBlur
       id="feGaussianBlur6698"
       in="SourceAlpha"
       stdDeviation="1"
       result="blur" /><feColorMatrix
       id="feColorMatrix6700"
       result="bluralpha"
       type="matrix"
       values="1 0 0 0 0 0 1 0 0 0 0 0 1 0 0 0 0 0 0.5 0 " /><feOffset
       id="feOffset6702"
       in="bluralpha"
       dx="1"
       dy="3"
       result="offsetBlur" /><feMerge
       id="feMerge6704"><feMergeNode
         id="feMergeNode6706"
         in="offsetBlur" /><feMergeNode
         id="feMergeNode6708"
         in="SourceGraphic" /></feMerge></filter><filter
     id="filter6710"
     inkscape:label="Drop shadow"
     width="1.5"
     height="1.5"
     x="-.25"
     y="-.25"><feGaussianBlur
       id="feGaussianBlur6712"
       in="SourceAlpha"
       stdDeviation="1"
       result="blur" /><feColorMatrix
       id="feColorMatrix6714"
       result="bluralpha"
       type="matrix"
       values="1 0 0 0 0 0 1 0 0 0 0 0 1 0 0 0 0 0 0.5 0 " /><feOffset
       id="feOffset6716"
       in="bluralpha"
       dx="1"
       dy="3"
       result="offsetBlur" /><feMerge
       id="feMerge6718"><feMergeNode
         id="feMergeNode6720"
         in="offsetBlur" /><feMergeNode
         id="feMergeNode6722"
         in="SourceGraphic" /></feMerge></filter></defs><sodipodi:namedview
   pagecolor="#ffffff"
   bordercolor="#666666"
   borderopacity="1"
   objecttolerance="10"
   gridtolerance="10"
   guidetolerance="10"
   inkscape:pageopacity="0"
   inkscape:pageshadow="2"
   inkscape:window-width="1228"
   inkscape:window-height="836"
   id="namedview1200"
   showgrid="false"
   inkscape:zoom="2.2425732"
   inkscape:cx="143.64252"
   inkscape:cy="403.02683"
   inkscape:window-x="120"
   inkscape:window-y="15"
   inkscape:window-maximized="0"
   inkscape:current-layer="Layer_1" />
<rect
   style="fill:#ffffd1;fill-opacity:0;stroke:none"
   id="rect6582"
   width="103.70419"
   height="103.70419"
   x="100.33116"
   y="396.16803"
   inkscape:export-xdpi="41.656944"
   inkscape:export-ydpi="41.656944"
   inkscape:export-filename="/Users/guilhem/Downloads/tomm.png" /><g
   display="none"
   id="g3">
	<defs
   id="defs5">
		<rect
   id="SVGID_1_"
   x="132.898"
   y="4052.859"
   width="96"
   height="96" />
	</defs>
	<clipPath
   id="SVGID_2_"
   display="inline">
		<use
   xlink:href="#SVGID_1_"
   overflow="visible"
   id="use9" />
	</clipPath>
	
		<linearGradient
   id="SVGID_3_"
   gradientUnits="userSpaceOnUse"
   x1="212.1733"
   y1="470.7246"
   x2="213.1733"
   y2="470.7246"
   gradientTransform="matrix(0 -96 -96 0 45370.5 24517.5156)">
		<stop
   offset="0"
   style="stop-color:#272D33"
   id="stop12" />
		<stop
   offset="0.2822"
   style="stop-color:#272D33"
   id="stop14" />
		<stop
   offset="0.3773"
   style="stop-color:#202429"
   id="stop16" />
		<stop
   offset="0.5105"
   style="stop-color:#16191B"
   id="stop18" />
		<stop
   offset="0.6524"
   style="stop-color:#0C0E0F"
   id="stop20" />
		<stop
   offset="0.8074"
   style="stop-color:#040404"
   id="stop22" />
		<stop
   offset="1"
   style="stop-color:#010101"
   id="stop24" />
	</linearGradient>
	<rect
   x="132.898"
   y="4052.859"
   display="inline"
   clip-path="url(#SVGID_2_)"
   fill="url(#SVGID_3_)"
   width="96"
   height="96"
   id="rect26" />
</g>
<rect
   x="13.005"
   y="8.99"
   display="none"
   fill="#595A5C"
   width="96"
   height="96"
   id="rect28" />











































































































<g
   id="g694"
   transform="matrix(1,0,0,0.54450917,-388.46247,-368.81749)"
   inkscape:path-effect="#path-effect5797"
   style="fill:#a700be;fill-opacity:0.98275865;filter:url(#filter6710)">
	<defs
   id="defs696">
		<rect
   id="SVGID_106_"
   x="491.47699"
   y="1508.83"
   width="96"
   height="96" />
	</defs>
	<clipPath
   id="SVGID_107_">
		<use
   xlink:href="#SVGID_106_"
   overflow="visible"
   id="use700"
   style="overflow:visible"
   x="0"
   y="0"
   width="595.28003"
   height="841.89001" />
	</clipPath>
	<path
   clip-path="url(#SVGID_107_)"
   d="m 512.9981,1578.5321 c -0.48393,-1.1466 -0.32627,-2.2053 0.16003,-3.1494 0.48629,-0.944 1.29601,-1.7922 2.12039,-2.5977 0,0 0,0 0,0 0.85467,-0.8016 1.76924,-1.5757 2.46555,-2.3061 0.57539,-0.6026 2.62754,-2.7529 4.27259,-5.0156 0.82253,-1.1313 1.53341,-2.2794 1.83481,-3.2164 0.3014,-0.9371 0.181,-1.6567 -0.59055,-1.9609 -0.65818,-0.2599 -1.83965,-1.1597 -3.09413,-2.243 -1.25449,-1.0833 -2.58486,-2.3561 -3.74484,-3.1946 0,0 0,0 0,0 -0.95365,-0.7219 -1.86064,-1.0909 -2.48291,-0.6848 -0.2866,0.1902 -0.84901,0.3278 -1.46699,0.3883 -0.61798,0.06 -1.29252,0.042 -1.76308,-0.041 -0.12953,2.0321 -0.24179,4.0484 -0.35897,6.0646 0.37051,0.8709 1.16041,1.6914 1.81806,2.5213 0.65766,0.8299 1.18902,1.6741 1.11561,2.67 -0.11956,1.5883 -1.16425,4.4133 -1.73087,7.0535 -0.28331,1.3201 -0.44099,2.6003 -0.26602,3.6344 0.17496,1.0342 0.691,1.8247 1.71132,2.0778 z m 4.0349,-37.1073 c 0.35569,-0.3534 0.17783,-1.0696 0.069,-1.7475 -0.10882,-0.6779 -0.14335,-1.3164 0.48059,-1.5261 0.0777,-0.025 0.34653,0.1791 0.69503,0.4878 0.52963,0.4452 1.26054,1.0944 1.88536,1.5768 0.62481,0.4825 1.14005,0.8028 1.17909,0.6364 0.10547,-0.4428 -0.25337,-1.1211 -0.78395,-1.8757 -0.53058,-0.7545 -1.2296,-1.5893 -1.85746,-2.3168 -0.61178,-0.7486 -1.19646,-1.3665 -1.46184,-1.6352 -1.28129,-1.2879 -2.05434,-0.9157 -2.69537,-0.015 -0.64104,0.901 -1.1447,2.3291 -2.14599,3.1478 -0.41583,2.2052 -0.73334,4.3528 -0.98792,6.4592 0.19819,-0.2685 1.37343,-0.4364 1.67443,-0.7595 0.62737,-0.6723 1.32266,-0.9831 2.0014,-1.2727 0.67873,-0.2897 1.34043,-0.5578 1.94762,-1.1598 z m 38.13888,24.5806 c 0.74519,-0.3445 0.90202,-1.3772 0.81613,-2.4227 -0.0859,-1.0454 -0.4092,-2.0973 -0.65357,-2.3702 -0.3594,0.3407 -0.738,1.7484 -0.86525,2.9375 -0.12725,1.189 0.01,2.1726 0.70269,1.8554 z m -16.00382,-11.3373 c 0.70922,0.235 1.25438,1.1928 1.74645,2.4749 0.49207,1.282 0.93113,2.8834 1.39868,4.4347 0.46755,1.5513 0.96156,3.0512 1.55601,4.2098 0.59445,1.1586 1.29119,1.981 2.16091,2.2342 0.66105,0.1963 1.4251,0.057 2.3004,-0.5543 1.42638,-0.9962 2.26002,-2.142 2.73437,-3.4472 0.47436,-1.3052 0.59045,-2.7663 0.56809,-4.3447 -0.0113,-0.8199 1.16312,-2.2328 2.21559,-3.6094 1.05246,-1.3767 1.99008,-2.718 1.7247,-3.2959 -0.22188,-0.4785 -0.90146,-0.1678 -1.57142,0 -0.66995,0.1726 -1.32937,0.213 -1.43526,-0.8263 -0.0634,-0.6234 -0.93788,-1.6354 -1.70914,-2.6132 -0.77125,-0.9778 -1.43764,-1.9229 -1.13229,-2.4172 0.46269,-0.7547 1.00113,-0.042 1.44079,0.8473 0.43966,0.8898 0.78567,1.9492 0.77765,1.926 0.88861,2.3107 1.63271,1.9188 3.34766,1.4765 1.98761,-0.5151 2.05072,-1.1963 1.53895,-1.9647 -0.51177,-0.7684 -1.63532,-1.6176 -2.16213,-2.4708 -0.6983,-1.1338 0.39049,-0.9897 1.65996,-0.5492 1.26948,0.4406 2.72532,1.1709 2.89736,1.181 1.06666,0.059 1.779,1.7918 2.43345,3.4487 0.65445,1.6569 1.23636,3.237 1.77917,3.0995 0.34632,-0.089 0.88814,-0.7155 1.41125,-1.5214 0.52311,-0.8059 1.02726,-1.7945 1.35187,-2.5523 -0.75823,-5.9917 -1.10322,-12.248 -0.70183,-18.4823 -0.59357,0.047 -2.0317,0.088 -2.67307,0.072 -0.37809,-0.012 -1.5587,0.1138 -2.63945,-0.087 -1.08075,-0.2012 -2.04473,-0.7207 -1.74921,-1.978 0.0289,-0.119 -1.4852,0.4286 -3.18828,0.9846 -1.70309,0.556 -3.59978,1.1344 -3.92375,1.0021 -0.77422,-0.3283 1.81496,-1.8286 1.77647,-1.6865 0.16451,-0.6002 0.0357,-0.9891 -0.27306,-1.237 -0.94462,-0.034 -1.90859,-0.061 -2.89032,-0.077 -0.66938,0.1588 -1.40146,0.3898 -2.14759,0.6698 -2.48963,0.9271 -5.16482,2.4262 -5.90982,3.4057 0.5097,-0.6697 0.88138,0.1231 1.16505,1.0762 0.28367,0.953 0.48927,2.062 0.49959,2.0679 0.2246,0.123 2.48177,-3.3844 3.60259,-3.6577 0.25727,-0.063 0.45106,0.049 0.5495,0.4206 0.2388,0.8967 -0.23834,1.6384 -1.02756,2.2106 -0.74504,0.5342 -1.76904,0.9269 -2.69923,1.1567 -0.93019,0.2298 -1.76348,0.2956 -2.08965,0.1422 -0.7105,-0.3351 -2.40765,1.9533 -2.65855,1.614 -0.37023,-0.5069 -0.31353,-1.6671 -0.17783,-2.7502 0.1357,-1.0831 0.34756,-2.0867 0.17049,-2.2329 -0.51726,-0.4268 -1.31743,0.6391 -1.9871,1.8398 -0.66967,1.2008 -1.19278,2.5292 -1.30798,2.6884 -0.1473,0.2021 0.77203,0.6164 1.50934,1.1267 0.73732,0.5103 1.29781,1.1097 0.3978,1.6557 -0.23095,0.1405 -1.2923,0.1864 -2.26886,0.4868 -0.97657,0.3003 -1.8744,0.8541 -1.71339,1.943 0.12799,0.8613 0.72422,0.9961 1.53832,0.768 0.81411,-0.2281 1.84971,-0.8213 2.88183,-1.4357 2.06424,-1.2287 4.08754,-2.527 4.41241,-1.246 0.20376,0.7979 1.61493,0.7606 3.21746,0.4668 2.14651,-0.3957 4.61024,-1.2795 5.3042,-1.4861 -0.49562,1.8862 -1.24204,3.0694 -2.19822,3.7916 -0.95619,0.7221 -2.1149,0.9832 -3.34179,0.9954 -1.7842,0.021 -3.70758,-0.4537 -5.31428,-0.8881 -1.81893,-0.4906 -3.86711,0.4492 -5.53303,2.0114 -1.66592,1.5622 -2.92062,3.7239 -3.12592,5.673 -0.18036,1.7248 0.0123,2.729 0.43547,3.3075 0.42319,0.5786 1.08036,0.7287 1.85551,0.7082 1.55029,-0.041 3.56242,-0.7577 5.19067,-0.2101 z m 23.81235,20.203 c -0.84894,0.1248 -1.27671,0.6697 -1.44382,1.2529 -0.16711,0.5832 -0.0717,1.2048 0.14624,1.5645 3.63193,0.4756 7.17451,1.1046 10.58011,1.7183 -0.5579,-2.4001 -1.24773,-5.1057 -1.97187,-8.0516 -0.89452,0.5701 -1.77592,1.3321 -2.90816,1.9996 -1.13224,0.6675 -2.51813,1.2358 -4.4025,1.5163 z m -49.89939,-24.0401 c -0.0137,-0.6554 -0.39862,-1.245 -0.84098,-1.7862 -0.44236,-0.5413 -0.9437,-1.036 -1.15048,-1.4868 -0.0422,0.4324 -0.0823,0.8632 -0.12049,1.2928 0.66964,0.9623 2.11131,1.9401 2.11195,1.9802 z m 58.19903,-32.8982 c -2.28775,0.5668 -5.10964,0.3122 -8.34204,-0.045 -3.2324,-0.3576 -6.87536,-0.8185 -10.85043,-1.0185 0,0 0,0 0,0 -4.45203,-0.227 -9.31383,-0.1351 -14.55246,0.2719 0,0 0,0 0,0 -3.57866,0.2738 -7.46233,0.7363 -11.58225,1.2314 -5.07553,0.6056 -10.3096,1.187 -15.71459,1.2002 -5.31452,13.3313 -6.56341,23.7737 -7.15721,34.2995 -0.59381,10.5258 -0.53252,21.135 -3.83373,34.7883 4.80584,2.0486 9.82904,2.6811 14.6969,1.6982 4.00823,-0.8041 7.99133,-2.6598 12.2914,-4.3075 0,0 0,0 0,0 3.14105,-1.2016 6.39176,-2.25 9.71788,-3.0251 3.32611,-0.775 6.7266,-1.2779 10.1498,-1.4859 0,0 0,0 10e-6,0 6.07703,-0.3685 12.22314,0.1354 18.24413,1.1644 6.02099,1.029 11.91414,2.5677 17.47539,3.794 -0.98827,-3.6254 -2.58893,-8.2205 -4.26627,-13.4489 -1.67733,-5.2285 -3.43133,-11.0904 -4.82557,-17.2504 -1.39425,-6.1601 -2.42874,-12.6184 -2.76638,-19.0406 -0.33764,-6.4223 0.0216,-12.8085 1.31542,-18.8255 z m 4.46866,64.0071 c -4.58607,-0.901 -9.41696,-1.8954 -14.37736,-2.5546 -4.96041,-0.6592 -10.04926,-0.9772 -15.1398,-0.7817 0,0 0,0 0,0 -3.41971,0.1337 -6.84492,0.5237 -10.21785,1.1439 -3.37292,0.6203 -6.69259,1.4719 -9.91155,2.4312 -2.20831,0.6638 -4.26558,1.335 -6.22376,1.8746 -1.95818,0.5396 -3.81796,0.9456 -5.63684,1.1132 -2.93153,0.2769 -6.0204,-0.04 -9.16554,-0.9405 0.8966,-5.2792 1.45624,-10.1802 1.83984,-14.9067 0.3836,-4.7265 0.59117,-9.2784 0.86476,-13.8621 0.27359,-4.5837 0.61321,-9.1992 1.34204,-14.0555 0.72884,-4.8563 1.84689,-9.9535 3.7585,-15.5033 3.33689,10e-5 6.4938,-0.1957 9.46847,-0.4268 3.66024,-0.2796 7.34359,-0.7257 11.19445,-1.1627 0,0 0,0 0,0 2.80847,-0.3118 5.55143,-0.5577 8.20473,-0.705 2.6533,-0.1474 5.21689,-0.1963 7.66713,-0.1578 0,0 0,0 0,0 3.6488,0.061 7.05339,0.3047 10.14394,0.5303 3.09054,0.2256 5.86698,0.4332 8.25926,0.2338 -1.55298,10.6402 -0.53754,21.7982 1.41979,31.9321 1.95734,10.1339 4.85657,19.2436 6.50979,25.7976 z"
   id="path702"
   inkscape:connector-curvature="0"
   style="fill:#a700be;fill-opacity:0.98275865"
   inkscape:original-d="m 510.911,1580.963 c -2.403,-3.592 2.971,-6.77 5.588,-9.275 1.437,-1.373 10.131,-9.582 6.351,-11.252 -2.306,-1.02 -10.373,-8.167 -13.082,-6.37 -0.75,0.505 -3,0.979 -4.191,1.013 v 6.807 c 1.056,1.734 4.271,2.818 4.252,5.045 -0.037,3.553 -4.522,13.329 1.082,14.032 m 1.374,-40.487 c 0.859,-0.735 -1.711,-2.808 -0.061,-3.241 0.4,-0.102 5.891,3.12 5.926,2.684 0.111,-1.305 -6.049,-4.946 -7.373,-5.699 -4.336,-2.452 -3.311,1.465 -5.403,3.283 v 6.761 c 0.206,-0.312 1.668,-0.644 2.004,-1.013 1.401,-1.536 3.44,-1.523 4.907,-2.775 m 44.488,28.743 c 1.738,-0.996 1.27,-5.242 0.77,-5.848 -0.914,0.85 -2.385,6.766 -0.77,5.848 m -16.825,-13.211 c 3.649,1.455 3.403,20.5 9.325,15.449 3.119,-2.658 3.975,-6.02 4.191,-9.668 0.113,-1.895 5.818,-6.635 5.258,-7.838 -0.469,-0.996 -3.469,1.459 -3.613,-0.74 -0.086,-1.319 -4.035,-4.144 -3.309,-5.164 1.1,-1.557 2.67,2.859 2.652,2.811 1.006,2.381 1.871,1.959 4.043,1.413 5.035,-1.271 0.729,-2.86 -0.574,-4.553 -1.727,-2.25 5.502,0.437 5.969,0.442 2.896,0.024 3.398,6.897 4.949,6.556 0.99,-0.22 3.488,-2.726 4.771,-4.24 v -18.052 c -1.07,0.023 -3.555,0.056 -4.623,0.052 -1.26,-0.01 -7.623,0.603 -7.326,-1.796 0.031,-0.227 -8.617,2.379 -9.541,2.145 -1.107,-0.291 1.986,-1.763 1.971,-1.629 0.066,-0.566 -0.225,-0.923 -0.723,-1.143 h -3.924 c -3.6,0.677 -8.1,2.518 -8.916,3.675 0.857,-1.214 2.713,3.048 2.74,3.06 0.361,0.155 3.238,-4.854 4.377,-3 1.49,2.418 -5.016,3.693 -6.297,3.192 -0.908,-0.356 -2.429,1.747 -2.785,1.401 -1.053,-1.033 -0.702,-4.467 -1.209,-4.768 -1.481,-0.879 -2.5,3.775 -2.695,4.062 -0.25,0.364 4.589,1.942 2.714,2.874 -0.481,0.24 -4.804,-0.162 -4.125,2.042 1.077,3.487 8.688,-3.791 9.772,-1.247 0.801,1.871 8.729,-0.563 10.229,-0.936 -1.549,6.338 -8.1,4.943 -12.57,3.678 -4.22,-1.192 -8.75,3.07 -8.951,7.137 -0.35,7.199 4.708,3.367 8.22,4.785 m 24.101,24.385 c -1.893,0.717 -2.16,3.666 -1.793,4.793 h 11.15 v -11.072 c -2.588,1.74 -5.154,4.677 -9.357,6.279 m -55.753,-29.783 c -0.172,-1.403 -2.298,-2.28 -2.922,-3.172 v 1.411 c 0.94,0.911 2.917,1.718 2.922,1.761 m 73.917,-30.963 h -85.474 v 74.362 h 85.474 v -74.362 z m -5.533,68.617 h -74.576 v -62.691 h 74.576 v 62.691 z" />
</g>


















































































<path
   inkscape:connector-curvature="0"
   style="fill:#199332;fill-opacity:1;stroke:#ffffff;stroke-width:1.13514316;stroke-miterlimit:4;stroke-opacity:1;stroke-dasharray:none;filter:url(#filter6696)"
   d="m 152.25013,398.6077 c -18.24618,0 -33.05468,16.10897 -33.05468,35.95753 0,0.005 0,0.009 0,0.0134 17.78169,0.57197 32.05427,16.44728 32.06304,35.92608 0.33001,0.0106 0.65928,0.0179 0.99164,0.0179 0.33237,0 0.66162,-0.007 0.99164,-0.0179 0.009,-19.4788 14.28135,-35.35411 32.06304,-35.92608 0,-0.005 0,-0.009 0,-0.0134 0,-19.84857 -14.8085,-35.95755 -33.05468,-35.95755 z"
   id="path2160" /></svg>